<svg width="36" height="36" viewBox="0 0 36 36" fill="none" xmlns="http://www.w3.org/2000/svg"><path d="M35.9894 18.0006C35.9894 27.0918 29.2525 34.6076 20.5007 35.8272C19.6824 35.9407 18.8452 36 17.9953 36C17.0144 36 16.051 35.9218 15.113 35.7705C6.54399 34.3906 0 26.9593 0 18.0006C0 8.05942 8.05705 0 17.9941 0C27.9311 0 35.9894 8.05942 35.9894 18.0006Z" fill="#1877F2"></path><path d="M20.5007 14.4527V18.374H25.35L24.5822 23.6561H20.5007V35.8259C19.6824 35.9395 18.8451 35.9987 17.9953 35.9987C17.0143 35.9987 16.051 35.9205 15.1129 35.7692V23.6561H10.6406V18.374H15.1129V13.5762C15.1129 10.5996 17.525 8.18555 20.5019 8.18555V8.18807C20.5108 8.18807 20.5183 8.18555 20.5272 8.18555H25.3513V12.7538H22.1991C21.2622 12.7538 20.5019 13.5143 20.5019 14.4515L20.5007 14.4527Z" fill="white"></path></svg>