<svg width="36" height="36" viewBox="0 0 37 36" fill="none" xmlns="http://www.w3.org/2000/svg"><path d="M19.0051 0H18.9231C9.00758 0 0.969421 8.04052 0.969421 17.959V18.041C0.969421 27.9595 9.00758 36 18.9231 36H19.0051C28.9207 36 36.9588 27.9595 36.9588 18.041V17.959C36.9588 8.04052 28.9207 0 19.0051 0Z" fill="url(#paint0_linear_2_7)"></path><path d="M24.5328 7.3241H13.3967C10.3201 7.3241 7.81726 9.82769 7.81726 12.9052V23.0961C7.81726 26.1736 10.3201 28.6771 13.3967 28.6771H24.5328C27.6094 28.6771 30.1122 26.1736 30.1122 23.0961V12.9052C30.1122 9.82769 27.6094 7.3241 24.5328 7.3241ZM9.7855 12.9052C9.7855 10.9136 11.4057 9.29292 13.3967 9.29292H24.5328C26.5237 9.29292 28.144 10.9136 28.144 12.9052V23.0961C28.144 25.0876 26.5237 26.7083 24.5328 26.7083H13.3967C11.4057 26.7083 9.7855 25.0876 9.7855 23.0961V12.9052Z" fill="white"></path><path d="M18.9648 23.1907C21.8257 23.1907 24.1546 20.8624 24.1546 17.9994C24.1546 15.1363 21.827 12.808 18.9648 12.808C16.1026 12.808 13.775 15.1363 13.775 17.9994C13.775 20.8624 16.1026 23.1907 18.9648 23.1907ZM18.9648 14.7781C20.7413 14.7781 22.1863 16.2235 22.1863 18.0006C22.1863 19.7777 20.7413 21.2231 18.9648 21.2231C17.1882 21.2231 15.7432 19.7777 15.7432 18.0006C15.7432 16.2235 17.1882 14.7781 18.9648 14.7781Z" fill="white"></path><path d="M24.6349 13.6468C25.4053 13.6468 26.0333 13.0199 26.0333 12.248C26.0333 11.4761 25.4066 10.8493 24.6349 10.8493C23.8633 10.8493 23.2366 11.4761 23.2366 12.248C23.2366 13.0199 23.8633 13.6468 24.6349 13.6468Z" fill="white"></path><defs><linearGradient id="paint0_linear_2_7" x1="6.22731" y1="30.7406" x2="31.7084" y2="5.2682" gradientUnits="userSpaceOnUse"><stop stop-color="#FAAD4F"></stop><stop offset="0.35" stop-color="#DD2A7B"></stop><stop offset="0.62" stop-color="#9537B0"></stop><stop offset="1" stop-color="#515BD4"></stop></linearGradient></defs></svg>