<svg width="112" height="25" fill="none" xmlns="http://www.w3.org/2000/svg" role="img" aria-hidden="true"><path d="M13.955.042h7.753v5.332H20.37V19.18h1.338v5.374h-8.305V19.18h1.338v-8.645l-3.866 10.578-3.76-10.578v8.645h1.339v5.374H.042V19.18h1.339V5.374H0V.042h8.05l2.931 8.284L13.955.042zM38.403 19.18h.977v5.374h-7.647V19.18h1.02v-2.018h-3.526l-.021 2.018h.977v5.374h-7.626V19.18h.977L26.614 0h8.73l3.059 19.18zm-6.224-5.268L30.926 6.33l-1.168 7.582h2.421zm23.152 5.247h1.338v5.395h-7.306v-9.792H47.6v4.397h.956v5.395h-8.284v-5.395h1.317V5.353h-1.317V.043h12.532l2.527 2.59v7.669l-2.06 2.06 2.06 2.06v4.737zM49.363 5.353h-1.806v5.586h1.806V5.353zM68.415.043l2.55 2.59v7.562h-5.927V5.46l-1.805-.021v13.785h1.805v-4.78h5.926v7.52l-2.549 2.612H59.94l-2.485-2.612V2.655L59.941.064l8.474-.022zM88.636 19.18v5.374h-7.625V19.18h.977v-2.018h-3.526l-.042 2.018h.977v5.374h-7.583V19.18h.956L75.85 0h8.73l3.08 19.18h.976zm-7.2-5.268L80.183 6.33l-1.169 7.582h2.422z" fill="#C00C00"/><path d="M111.003 15.442c0 5.267-4.27 9.558-9.559 9.558a9.545 9.545 0 0 1-9.558-9.558 9.545 9.545 0 0 1 9.558-9.558c5.268 0 9.559 4.269 9.559 9.558z" fill="#003D4F"/><path d="m99.958 12.787-1.381 7.838h-2.719l1.38-7.838h-1.635l.489-2.57h5.905l-.404 2.57h-1.635zM108.581 12.086l-3.313 8.539h-3.229l-.255-8.54h2.698l-.255 4.716-.064 1.105h.043l.297-1.105 1.402-4.715h2.676z" fill="#fff"/></svg>