<svg width="36" height="36" viewBox="0 0 37 36" fill="none" xmlns="http://www.w3.org/2000/svg"><path fill-rule="evenodd" clip-rule="evenodd" d="M18.9644 36C28.8489 36 36.9482 27.9007 36.9482 18.0162C36.9482 8.09888 28.8489 0 18.9644 0C9.04712 0 0.948242 8.09888 0.948242 18.0162C0.948242 27.9007 9.04712 36 18.9644 36Z" fill="#E17842"></path><path fill-rule="evenodd" clip-rule="evenodd" d="M8.8241 11.256C18.1032 11.256 25.7237 18.8445 25.7237 28.1236H31.336C31.336 15.7517 21.1956 5.64368 8.8241 5.64368V11.256ZM11.8851 22.5113C13.4478 22.5113 14.6913 23.7548 14.6913 25.318C14.6913 26.8801 13.4477 28.1236 11.8851 28.1236C10.323 28.1236 9.07891 26.88 9.07891 25.318C9.07891 23.7548 10.323 22.5113 11.8851 22.5113ZM8.8241 19.1312C13.7663 19.1312 17.816 23.1814 17.816 28.1236H23.4596C23.4596 20.088 16.8916 13.52 8.82417 13.52L8.8241 19.1312Z" fill="white"></path></svg>