<svg width="36" height="36" viewBox="0 0 37 36" fill="none" xmlns="http://www.w3.org/2000/svg"><path d="M18.9945 0H18.9126C8.99702 0 0.958862 8.04052 0.958862 17.959V18.041C0.958862 27.9595 8.99702 36 18.9126 36H18.9945C28.9101 36 36.9483 27.9595 36.9483 18.041V17.959C36.9483 8.04052 28.9101 0 18.9945 0Z" fill="black"></path><path d="M28.078 14.2976V17.6967C27.4841 17.6386 26.7124 17.5037 25.8588 17.1909C24.7442 16.7822 23.9145 16.2235 23.3711 15.7909V22.661L23.3572 22.6395C23.366 22.7757 23.3711 22.9145 23.3711 23.0545C23.3711 26.4662 20.5959 29.2434 17.1839 29.2434C13.772 29.2434 10.9968 26.4662 10.9968 23.0545C10.9968 19.6428 13.772 16.8642 17.1839 16.8642C17.5181 16.8642 17.8459 16.8907 18.1662 16.9424V20.2923C17.8585 20.1826 17.5281 20.1233 17.1839 20.1233C15.5687 20.1233 14.2536 21.4375 14.2536 23.0545C14.2536 24.6714 15.5687 25.9856 17.1839 25.9856C18.7991 25.9856 20.1142 24.6701 20.1142 23.0545C20.1142 22.9939 20.113 22.9334 20.1092 22.8728V9.52246H23.5047C23.5173 9.81003 23.5287 10.1001 23.5413 10.3877C23.564 10.954 23.7657 11.4976 24.1175 11.9428C24.5298 12.4662 25.1388 13.0742 25.9937 13.5597C26.7944 14.0138 27.5459 14.208 28.078 14.3001V14.2976Z" fill="#FF004F"></path><path d="M26.9103 11.5379V14.937C26.3165 14.879 25.5448 14.7441 24.6912 14.4313C23.5766 14.0226 22.7469 13.4639 22.2035 13.0313V19.9013L22.1896 19.8799C22.1984 20.0161 22.2035 20.1548 22.2035 20.2948C22.2035 23.7065 19.4283 26.4838 16.0163 26.4838C12.6044 26.4838 9.82916 23.7065 9.82916 20.2948C9.82916 16.8831 12.6044 14.1046 16.0163 14.1046C16.3505 14.1046 16.6783 14.1311 16.9985 14.1828V17.5327C16.6909 17.423 16.3605 17.3637 16.0163 17.3637C14.4011 17.3637 13.086 18.6779 13.086 20.2948C13.086 21.9118 14.4011 23.226 16.0163 23.226C17.6315 23.226 18.9466 21.9105 18.9466 20.2948C18.9466 20.2343 18.9453 20.1738 18.9416 20.1132V6.76031H22.3371C22.3497 7.04788 22.3611 7.33797 22.3737 7.62554C22.3964 8.19184 22.5981 8.73544 22.9499 9.18066C23.3622 9.70408 23.9712 10.312 24.8261 10.7976C25.6268 11.2504 26.3783 11.4459 26.9103 11.5379Z" fill="#00F7EF"></path><path d="M27.653 13.0237V16.4228C27.0592 16.3648 26.2875 16.2298 25.4339 15.917C24.3193 15.5084 23.4896 14.9496 22.9462 14.517V21.3871L22.9323 21.3656C22.9411 21.5019 22.9462 21.6406 22.9462 21.7806C22.9462 25.1923 20.1709 27.9696 16.759 27.9696C13.347 27.9696 10.5718 25.1923 10.5718 21.7806C10.5718 18.3689 13.347 15.5904 16.759 15.5904C17.0931 15.5904 17.421 15.6168 17.7412 15.6686V19.0185C17.4336 18.9087 17.1032 18.8494 16.759 18.8494C15.1438 18.8494 13.8287 20.1637 13.8287 21.7806C13.8287 23.3975 15.1438 24.7118 16.759 24.7118C18.3742 24.7118 19.6893 23.3963 19.6893 21.7806C19.6893 21.7201 19.688 21.6595 19.6842 21.599V8.2486H23.0798C23.0924 8.53616 23.1038 8.82625 23.1164 9.11382C23.1391 9.68012 23.3408 10.2237 23.6926 10.6689C24.1049 11.1924 24.7139 11.8003 25.5688 12.2859C26.3694 12.7387 27.1209 12.9342 27.653 13.0262V13.0237Z" fill="white"></path></svg>