<svg width="36" height="36" viewBox="0 0 37 36" fill="none" xmlns="http://www.w3.org/2000/svg"><path d="M36.9775 18.0006C36.9775 27.0918 30.2406 34.6076 21.4888 35.8272C20.6705 35.9407 19.8333 36 18.9834 36C18.0025 36 17.0392 35.9218 16.1011 35.7705C7.53336 34.3906 0.98938 26.9593 0.98938 18.0006C0.98938 8.05942 9.04642 0 18.9847 0C28.923 0 36.98 8.05942 36.98 18.0006H36.9775Z" fill="#1C1C1B"></path><path d="M8.28742 7.93835L16.5865 19.0374L8.23572 28.0617H10.1157L17.4276 20.1612L23.3348 28.0617H29.7313L20.9656 16.3383L28.7389 7.93835H26.859L20.1258 15.2145L14.6851 7.93835H8.28867H8.28742ZM11.0513 9.32321H13.9891L26.9649 26.6768H24.027L11.0513 9.32321Z" fill="white"></path></svg>