<svg width="36" height="36" viewBox="0 0 37 36" fill="none" xmlns="http://www.w3.org/2000/svg"><path d="M36.9694 18C36.9694 8.05887 28.9129 0 18.9747 0C9.03655 0 0.980042 8.05887 0.980042 18C0.980042 27.9411 9.03655 36 18.9747 36C28.9129 36 36.9694 27.9411 36.9694 18Z" fill="#FF0209"></path><path d="M26.6135 25.9723C26.0773 26.0305 25.5285 26.0406 25.0025 26.0393C20.8993 26.0356 16.7961 26.0318 12.6941 26.0292C11.4031 26.0292 9.99702 25.9875 8.99935 25.1666C7.87523 24.2395 7.64131 22.6319 7.55027 21.1773C7.42382 19.1839 7.41371 17.1842 7.51739 15.1895C7.57429 14.0942 7.67418 12.9722 8.14583 11.9806C8.48471 11.2685 9.04993 10.6285 9.77321 10.292C10.6141 9.9012 11.4942 9.97076 12.3995 9.9695C14.5668 9.96697 16.7341 9.9657 18.9014 9.96317C21.1547 9.96064 23.4093 9.95938 25.6626 9.95685C26.7273 9.95685 27.8703 9.97835 28.739 10.5943C29.8606 11.3887 30.1653 12.9001 30.3057 14.2674C30.5649 16.7857 30.5687 19.3306 30.3158 21.8489C30.2109 22.8874 30.0364 23.9852 29.3523 24.7732C28.6745 25.5549 27.6693 25.8559 26.6147 25.971L26.6135 25.9723Z" fill="white"></path><path d="M22.6443 18L16.5294 14.4686V21.5315L22.6443 18Z" fill="#FF0209"></path></svg>